<?xml version="1.0" encoding="utf-8"?>
<!-- Generator: Adobe Illustrator 22.0.0, SVG Export Plug-In . SVG Version: 6.00 Build 0)  -->
<svg version="1.1" id="Layer_1" xmlns="http://www.w3.org/2000/svg" xmlns:xlink="http://www.w3.org/1999/xlink" x="0px" y="0px"
	 viewBox="0 0 62.7 72.7" style="enable-background:new 0 0 62.7 72.7;" xml:space="preserve">
<style type="text/css">
	.st0{fill:#5224A2;}
</style>
<g>
	<path class="st0" d="M59.3,50.5L30.4,26.8c-0.6-0.5-1.4-0.4-1.8,0.2c-0.2,0.2-0.3,0.5-0.3,0.8l0,39.4c0,0.6,0.4,1.1,0.9,1.3
		c0.1,0,0.3,0.1,0.4,0.1c0.4,0,0.9-0.2,1.1-0.6l10.1-15.2l17.7,0c0.7,0,1.3-0.6,1.3-1.3C59.8,51.1,59.6,50.7,59.3,50.5z"/>
	<g>
		<path class="st0" d="M29.6,18.6c-0.7,0-1.3-0.6-1.3-1.3l0-10.5c0-0.7,0.6-1.3,1.3-1.3c0.7,0,1.3,0.6,1.3,1.3l0,10.5
			C30.9,18,30.3,18.6,29.6,18.6z"/>
		<path class="st0" d="M19,29.1l-10.5,0c-0.7,0-1.3-0.6-1.3-1.3c0-0.7,0.6-1.3,1.3-1.3l10.5,0c0.7,0,1.3,0.6,1.3,1.3
			C20.3,28.5,19.8,29.1,19,29.1z"/>
		<path class="st0" d="M50.6,29.1l-10.5,0c-0.7,0-1.3-0.6-1.3-1.3c0-0.7,0.6-1.3,1.3-1.3l10.5,0c0.7,0,1.3,0.6,1.3,1.3
			S51.3,29.1,50.6,29.1z"/>
		<path class="st0" d="M22.1,21.7c-0.3,0-0.7-0.1-0.9-0.4l-7.4-7.4c-0.5-0.5-0.5-1.4,0-1.9s1.4-0.5,1.9,0l7.4,7.4
			c0.5,0.5,0.5,1.3,0,1.9C22.8,21.6,22.5,21.7,22.1,21.7L22.1,21.7L22.1,21.7z"/>
		<path class="st0" d="M14.7,44c-0.7,0-1.3-0.6-1.3-1.3c0-0.3,0.1-0.7,0.4-0.9l7.4-7.4c0.5-0.5,1.4-0.5,1.9,0c0.5,0.5,0.5,1.3,0,1.8
			l-7.4,7.4C15.4,43.9,15,44,14.7,44z"/>
		<path class="st0" d="M37,21.7c-0.7,0-1.3-0.6-1.3-1.3c0-0.3,0.1-0.7,0.4-0.9l7.4-7.4c0.5-0.5,1.4-0.5,1.9,0c0.5,0.5,0.5,1.3,0,1.8
			l-7.4,7.4C37.7,21.6,37.3,21.7,37,21.7z"/>
	</g>
</g>
</svg>
